<svg width="20" height="20" viewBox="0 0 20 20" fill="none" xmlns="http://www.w3.org/2000/svg">
<path d="M17.55 7.45C17.0333 6 16.1917 4.7875 15.025 3.8125C13.8583 2.8375 12.5167 2.25 11 2.05V3.65L17.55 7.45ZM6 11.15L9 9.4V2.05C8.46667 2.1 7.95 2.22083 7.45 2.4125C6.95 2.60417 6.46667 2.83333 6 3.1V11.15ZM2.65 13.1L4 12.3V4.75C3.35 5.48333 2.85417 6.3 2.5125 7.2C2.17083 8.1 2 9.03333 2 10C2 10.5333 2.05417 11.0625 2.1625 11.5875C2.27083 12.1125 2.43333 12.6167 2.65 13.1ZM6 16.9L13 12.9L10 11.15L3.65 14.85C3.98333 15.2667 4.34167 15.65 4.725 16C5.10833 16.35 5.53333 16.65 6 16.9ZM10 18C11.25 18 12.4333 17.7167 13.55 17.15C14.6667 16.5833 15.6 15.8 16.35 14.8L15 14.05L8.4 17.85C8.66667 17.9 8.93333 17.9375 9.2 17.9625C9.46667 17.9875 9.73333 18 10 18ZM17.35 13.1C17.5667 12.6167 17.7292 12.1125 17.8375 11.5875C17.9458 11.0625 18 10.5333 18 10L11 5.95V9.4L17.35 13.1ZM10 20C8.61667 20 7.31667 19.7375 6.1 19.2125C4.88333 18.6875 3.825 17.975 2.925 17.075C2.025 16.175 1.3125 15.1167 0.7875 13.9C0.2625 12.6833 0 11.3833 0 10C0 8.61667 0.2625 7.31667 0.7875 6.1C1.3125 4.88333 2.025 3.825 2.925 2.925C3.825 2.025 4.88333 1.3125 6.1 0.7875C7.31667 0.2625 8.61667 0 10 0C11.3833 0 12.6833 0.2625 13.9 0.7875C15.1167 1.3125 16.175 2.025 17.075 2.925C17.975 3.825 18.6875 4.88333 19.2125 6.1C19.7375 7.31667 20 8.61667 20 10C20 11.3833 19.7375 12.6833 19.2125 13.9C18.6875 15.1167 17.975 16.175 17.075 17.075C16.175 17.975 15.1167 18.6875 13.9 19.2125C12.6833 19.7375 11.3833 20 10 20Z" fill="currentColor"/>
</svg>
