<svg width="24" height="24" viewBox="0 0 24 24" fill="none" xmlns="http://www.w3.org/2000/svg">
<path d="M11 22.95V20.95C8.91665 20.7167 7.12915 19.8542 5.63749 18.3625C4.14582 16.8708 3.28332 15.0833 3.04999 13H1.04999V11H3.04999C3.28332 8.91667 4.14582 7.12917 5.63749 5.6375C7.12915 4.14584 8.91665 3.28334 11 3.05V1.05H13V3.05C15.0833 3.28334 16.8708 4.14584 18.3625 5.6375C19.8542 7.12917 20.7167 8.91667 20.95 11H22.95V13H20.95C20.7167 15.0833 19.8542 16.8708 18.3625 18.3625C16.8708 19.8542 15.0833 20.7167 13 20.95V22.95H11ZM12 19C13.9333 19 15.5833 18.3167 16.95 16.95C18.3167 15.5833 19 13.9333 19 12C19 10.0667 18.3167 8.41667 16.95 7.05C15.5833 5.68334 13.9333 5 12 5C10.0667 5 8.41665 5.68334 7.04999 7.05C5.68332 8.41667 4.99999 10.0667 4.99999 12C4.99999 13.9333 5.68332 15.5833 7.04999 16.95C8.41665 18.3167 10.0667 19 12 19ZM12 16C10.9 16 9.95832 15.6083 9.17499 14.825C8.39165 14.0417 7.99999 13.1 7.99999 12C7.99999 10.9 8.39165 9.95834 9.17499 9.175C9.95832 8.39167 10.9 8 12 8C13.1 8 14.0417 8.39167 14.825 9.175C15.6083 9.95834 16 10.9 16 12C16 13.1 15.6083 14.0417 14.825 14.825C14.0417 15.6083 13.1 16 12 16ZM12 14C12.55 14 13.0208 13.8042 13.4125 13.4125C13.8042 13.0208 14 12.55 14 12C14 11.45 13.8042 10.9792 13.4125 10.5875C13.0208 10.1958 12.55 10 12 10C11.45 10 10.9792 10.1958 10.5875 10.5875C10.1958 10.9792 9.99999 11.45 9.99999 12C9.99999 12.55 10.1958 13.0208 10.5875 13.4125C10.9792 13.8042 11.45 14 12 14Z" fill="currentColor"/>
</svg>
